<svg xmlns="http://www.w3.org/2000/svg" xmlns:xlink="http://www.w3.org/1999/xlink" width="21.094" height="21.094" xmlns:v="https://vecta.io/nano"><g fill="#fff"><path d="M10.547 3.439a.46.46 0 0 0 .459-.459v-.229a.46.46 0 0 0-.459-.438.46.46 0 0 0-.459.438v.229a.46.46 0 0 0 .458.459zm0 14.216a.46.46 0 0 0-.459.459v.229a.46.46 0 0 0 .459.438.46.46 0 0 0 .459-.438v-.229a.46.46 0 0 0-.458-.459z"/><use xlink:href="#B"/><use xlink:href="#B" x="15.362"/><path d="M5.366 4.724c-.178-.173-.462-.172-.638.004s-.178.46-.004.638l.16.16c.084.088.2.138.321.138s.237-.05.321-.138.138-.2.138-.321-.05-.237-.138-.321zm-.48 10.845l-.16.161c-.088.084-.138.2-.138.321s.05.237.138.321.2.138.321.138.237-.05.321-.138l.16-.16c.117-.114.164-.283.122-.441s-.165-.282-.323-.323-.327.005-.441.122zM15.731 4.724l-.161.16c-.088.084-.138.2-.138.321s.05.237.138.321.2.138.321.138.237-.05.321-.138l.16-.16c.173-.178.172-.462-.004-.638s-.46-.178-.638-.004zm-4.726 5.639V6.19a.46.46 0 0 0-.458-.438.46.46 0 0 0-.459.438v4.356c.001.121.051.237.138.321l5.021 5.021c.084.088.2.138.321.138s.237-.05.321-.138.138-.2.138-.321-.05-.237-.138-.321zM10.547 0a10.547 10.547 0 1 0 10.547 10.547A10.548 10.548 0 0 0 10.547 0zm0 20.177a9.63 9.63 0 1 1 9.63-9.63 9.629 9.629 0 0 1-9.63 9.63z"/></g><defs ><path id="B" d="M2.981 10.088h-.229a.46.46 0 0 0-.438.459.46.46 0 0 0 .438.459h.229a.46.46 0 0 0 .438-.458.46.46 0 0 0-.438-.459z"/></defs></svg>