<svg xmlns="http://www.w3.org/2000/svg" width="20.048" height="13.365" xmlns:v="https://vecta.io/nano"><path d="M19.02 0H1.028A1.03 1.03 0 0 0 0 1.028v11.309a1.03 1.03 0 0 0 1.028 1.03H19.02a1.03 1.03 0 0 0 1.028-1.028V1.028A1.03 1.03 0 0 0 19.02 0zm-.386.771l-8.019 6.014c-.359.236-.824.236-1.183 0L1.414.767zm-4.283 6.411l4.369 5.4-17.407.014 4.383-5.414c.125-.166.096-.401-.066-.532s-.398-.11-.534.047L.771 12.042V1.253l8.2 6.149a1.84 1.84 0 0 0 2.108 0l8.2-6.149v10.789L14.95 6.697c-.136-.157-.372-.178-.534-.047s-.191.366-.066.532z" fill="#fff"/></svg>