<svg xmlns="http://www.w3.org/2000/svg" width="17.784" height="17.803" fill="#fff" xmlns:v="https://vecta.io/nano"><path d="M8.084 13.575a.35.35 0 0 0-.076.378c.053.13.18.214.321.214s.267-.085.321-.214.024-.279-.076-.378a.35.35 0 0 0-.49 0zm8.917-.607l-2.642-2.245c-.011-.011-.024-.02-.038-.028-.686-.442-1.587-.343-2.161.237l-1.44 1.439c-.099.1-.249.13-.379.076a9.44 9.44 0 0 1-3.968-3.008c-.461-.58-.826-1.229-1.082-1.924-.005-.025-.012-.049-.021-.072-.054-.13-.024-.28.076-.379l1.438-1.44a1.73 1.73 0 0 0 .238-2.162l-.012-.016L5.104.797A1.74 1.74 0 0 0 3.827.01a1.74 1.74 0 0 0-1.414.5l-.288.288h0L1.096 1.827C-.131 3.054-.332 4.898.515 7.16c2.012 4.545 5.663 8.164 10.224 10.138 1.977.722 4.078.811 5.566-.677l.971-.971a1.74 1.74 0 0 0-.275-2.682zm-3.071-1.7l2.639 2.243c.012.01.025.02.038.028a1.04 1.04 0 0 1 .476.767c.034.315-.076.628-.299.851l-.071.072-4.5-3.368.438-.439c.339-.342.869-.405 1.279-.152zM4.524 1.177l.011.016 1.906 2.649c.259.411.198.947-.148 1.289l-.425.426-3.043-4.476.081-.082c.224-.223.537-.333.852-.298a1.04 1.04 0 0 1 .765.478zm6.454 15.466a19.07 19.07 0 0 1-9.811-9.729c-.52-1.386-.868-3.309.422-4.6l.735-.736 3.042 4.476-.514.513a1.04 1.04 0 0 0-.237 1.107A7.74 7.74 0 0 0 5.74 9.748a10.2 10.2 0 0 0 4.335 3.336 1.04 1.04 0 0 0 1.136-.226l.5-.5 4.5 3.368-.4.4c-1.38 1.385-3.391 1.046-4.834.519zm-3.543-3.901l-1.336-1.22a22.67 22.67 0 0 1-2.193-2.6.35.35 0 0 0-.486-.086.35.35 0 0 0-.086.486A23.66 23.66 0 0 0 5.6 12.014c.354.363.994.923 1.377 1.258a.35.35 0 0 0 .344.074c.119-.039.208-.141.232-.265s-.021-.251-.118-.332z"/></svg>