<svg xmlns="http://www.w3.org/2000/svg" width="201" height="201" viewBox="0 0 201 201">
  <g id="derforkus-2-icon-without_shadow" data-name="derforkus-2-icon-without shadow" transform="translate(6955 18999)">
    <rect id="Rectangle_970" data-name="Rectangle 970" width="201" height="201" transform="translate(-6955 -18999)" fill="none"/>
    <path id="Path_14319" data-name="Path 14319" d="M168.305,59.573a404.057,404.057,0,0,0,2.5-45.362A11.226,11.226,0,0,0,161.63,2.934a162.436,162.436,0,0,0-71.071,0A11.226,11.226,0,0,0,81.38,14.211c0,14.528.992,29.8,2.493,45.092a57.7,57.7,0,1,0,84.433.27ZM125.963,40.961a57.166,57.166,0,0,0-22.313,4.516c-.631-8.318-1.061-16.059-1.29-23.4a151.471,151.471,0,0,1,23.6-2.1,130.672,130.672,0,0,1,23.6,2.36c-.226,7.464-.648,15.124-1.265,23.146A57.171,57.171,0,0,0,125.963,40.961ZM91.345,8.179a153.112,153.112,0,0,1,68.973,0c2.885.525,5.245,2.885,4.983,5.77,0,13.375-.787,27.012-1.836,40.912a54.57,54.57,0,0,0-8.853-6.233q-.551-.318-1.11-.622c.784-9.69,1.047-18.858,1.309-28.025a2.823,2.823,0,0,0-2.1-2.622,143.887,143.887,0,0,0-26.75-2.622,137.825,137.825,0,0,0-26.75,2.622,2.554,2.554,0,0,0-2.1,2.622,265.374,265.374,0,0,0,1.574,27.8A66.786,66.786,0,0,0,88.723,54.6c-1.311-13.637-2.1-27.274-2.1-40.912C86.363,11.326,88.723,8.7,91.345,8.179Zm34.618,142.929a52.451,52.451,0,1,1,0-104.9,51.97,51.97,0,0,1,22.485,5.1,2.643,2.643,0,0,0,.856.672A50.162,50.162,0,0,1,163.466,62.2a3.088,3.088,0,0,0,.537.436,52.384,52.384,0,0,1-38.04,88.469Z" transform="translate(-6980.267 -18976)" fill="#199e3b"/>
    <rect id="Rectangle_974" data-name="Rectangle 974" width="201" height="201" transform="translate(-6955 -18999)" fill="none"/>
  </g>
</svg>
