<svg xmlns="http://www.w3.org/2000/svg" width="40.203" height="59.788" fill="#eef34f" xmlns:v="https://vecta.io/nano"><path d="M11.916 3.8a1 1 0 0 1 1.938 0l2.807 11a1 1 0 0 0 .385.564l7.6 5.47a1 1 0 0 1 0 1.623l-7.6 5.47a1 1 0 0 0-.385.564l-2.807 11a1 1 0 0 1-1.938 0l-2.807-11a1 1 0 0 0-.385-.564l-7.6-5.47a1 1 0 0 1 0-1.623l7.6-5.47a1 1 0 0 0 .386-.564zm20.101 35.129a1 1 0 0 1 1.94 0l1.107 4.428a1 1 0 0 0 .378.563l3.664 2.692a1 1 0 0 1 0 1.612l-3.664 2.691a1 1 0 0 0-.378.563l-1.107 4.429a1 1 0 0 1-1.94 0l-1.107-4.428a1 1 0 0 0-.378-.563l-3.661-2.692a1 1 0 0 1 0-1.612l3.66-2.692a1 1 0 0 0 .378-.563z"/></svg>