<svg xmlns="http://www.w3.org/2000/svg" width="158.514" height="153.074" fill="#a5a5a5" xmlns:v="https://vecta.io/nano"><path d="M155.848 31.708l-.273-.273a9.75 9.75 0 0 0-13.394 0l-14.214 14.487c-.347.391-.844.615-1.367.615s-1.02-.224-1.367-.615l-19.954-18.587a10.93 10.93 0 0 0-7.107-2.734H68.377a2.31 2.31 0 0 0-1.64.547L41.589 49.202c-3.554 3.827-3.827 9.84-.547 13.394a9.27 9.27 0 0 0 13.667 0l17.767-18.861h6.287L37.216 90.204H11.521C5.529 90.031.466 94.612.041 100.591a10.3 10.3 0 0 0 3.007 8.2c2.157 2.019 4.974 3.184 7.927 3.28h38.268a2.48 2.48 0 0 0 1.913-.82l19.681-21.047 16.4 17.221-4.92 31.708a11.09 11.09 0 0 0 6.014 12.847 9.66 9.66 0 0 0 4.647 1.093 10.72 10.72 0 0 0 4.92-1.093 11.35 11.35 0 0 0 5.74-7.38l8.474-45.649c.022-.891-.268-1.761-.82-2.46L88.6 73.803l18.041-18.041 12.574 12.574a9.41 9.41 0 0 0 13.12 0l23.508-23.508a9.41 9.41 0 0 0 .005-13.12zm-3.827 9.294L128.513 64.51c-1.565 1.369-3.902 1.369-5.467 0l-14.487-14.487a2.64 2.64 0 0 0-3.826 0L82.865 71.89a2.48 2.48 0 0 0-.82 1.913c.013.857.416 1.662 1.093 2.187l23.508 23.508-8.2 44.009a7.56 7.56 0 0 1-3.007 3.554 5.51 5.51 0 0 1-4.647 0c-2.46-1.093-3.554-3.827-3.007-6.834l5.193-33.348a3.1 3.1 0 0 0-.82-2.187L72.751 84.464a2.48 2.48 0 0 0-1.913-.82 2.13 2.13 0 0 0-1.913.82l-20.775 22.14H10.975c-1.534.042-3.018-.551-4.1-1.64-.895-1.179-1.376-2.62-1.367-4.1 0-3.007 2.734-5.193 6.014-5.193H38.31c.82 0 1.367-.273 1.913-.273l46.469-51.936a2.98 2.98 0 0 0 .547-3.007 2.39 2.39 0 0 0-2.46-1.64H71.111c-.716.032-1.396.324-1.913.82L50.61 59.316c-.64.867-1.656 1.375-2.734 1.367a4.39 4.39 0 0 1-3.007-1.367 4.23 4.23 0 0 1 .273-5.74l24.329-23.235h28.975a5.04 5.04 0 0 1 3.28 1.367l19.954 18.588a7.6 7.6 0 0 0 10.387-.273l14.214-14.487a4.16 4.16 0 0 1 5.467 0l.273.273a3.8 3.8 0 0 1 0 5.193zm-26.241-8.201a16.4 16.4 0 1 0-16.4-16.4c.027 9.046 7.354 16.373 16.4 16.4zm0-27.335c6.038.002 10.932 4.898 10.931 10.936s-4.896 10.933-10.934 10.932a10.94 10.94 0 0 1-10.934-10.933A10.97 10.97 0 0 1 125.78 5.467z"/></svg>