<svg xmlns="http://www.w3.org/2000/svg" width="156.902" height="157.354" xmlns:v="https://vecta.io/nano"><path d="M153.209 114.549a12.3 12.3 0 0 0-5.189-3.119c3.817-5.104 3.042-12.29-1.775-16.463s-12.04-3.915-16.548.591l-4.22 4.22-21.253-21.252 21.233-21.233 4.239 4.2c2.147 2.384 5.233 3.707 8.44 3.617 3.316 0 6.029-1.809 8.44-3.919 2.335-2.182 3.647-5.244 3.617-8.44a11.72 11.72 0 0 0-2.588-7.278 9.8 9.8 0 0 0 5.3-2.971l.6-.6a11.46 11.46 0 0 0 0-16.278l-21.7-21.7a12.01 12.01 0 0 0-17.182 0c-1.503 1.489-2.595 3.341-3.172 5.376a11.99 11.99 0 0 0-16.12.947 12.01 12.01 0 0 0 0 17.182l4.39 4.352L78.601 52.9 57.066 31.369l4.2-4.239c2.384-2.147 3.707-5.233 3.617-8.44.09-3.207-1.233-6.293-3.617-8.44-2.147-2.384-5.233-3.707-8.44-3.617a11.69 11.69 0 0 0-7.061 2.417 12.28 12.28 0 0 0-3.19-5.432 12.01 12.01 0 0 0-17.182 0l-21.4 21.4a12.01 12.01 0 0 0 0 17.182c1.439 1.461 3.22 2.54 5.182 3.138a12.22 12.22 0 0 0 9.59 19.472c3.121-.052 6.118-1.23 8.44-3.316l4.352-4.39 21.418 21.422-21.55 21.553-4.22-4.22c-2.182-2.335-5.244-3.647-8.44-3.617a11.9 11.9 0 0 0-8.44 3.617c-2.384 2.147-3.707 5.233-3.617 8.44a11.72 11.72 0 0 0 2.613 7.311 12.27 12.27 0 0 0-5.628 3.24l-.3.3a11.83 11.83 0 0 0 0 16.579L25.7 154.036c2.092 2.068 4.897 3.255 7.838 3.316 2.953-.003 5.78-1.199 7.838-3.316l.9-.6a12.27 12.27 0 0 0 3.24-5.628c2.069 1.676 4.648 2.598 7.311 2.613 3.132.002 6.148-1.183 8.44-3.316a12.01 12.01 0 0 0 0-17.182l-4.22-4.22L78.6 104.15l21.253 21.25-4.22 4.22c-2.384 2.147-3.707 5.233-3.617 8.44.167 3.153 1.449 6.145 3.617 8.44 2.147 2.384 5.233 3.707 8.44 3.617a11.76 11.76 0 0 0 7.329-2.548 12.27 12.27 0 0 0 3.222 5.562l1.206 1.206a9.35 9.35 0 0 0 7.235 3.014c2.851-.066 5.561-1.258 7.536-3.316l22.91-22.91a11.46 11.46 0 0 0 0-16.278zM118.844 8.441a5.95 5.95 0 0 1 4.22-1.809 4.56 4.56 0 0 1 4.22 2.11l21.7 21.7c1.012.992 1.583 2.35 1.583 3.768s-.57 2.776-1.583 3.768l-.3.3c-1.854 1.988-4.851 2.394-7.167.971l-23.676-23.672c-.523-.883-.801-1.89-.806-2.916a5.95 5.95 0 0 1 1.809-4.22zm-18.991 14.77a5.83 5.83 0 0 1 0-8.44 5.83 5.83 0 0 1 8.441 0l34.063 34.063a5.83 5.83 0 0 1 0 8.441c-1.1 1.155-2.625 1.809-4.22 1.809s-3.12-.654-4.22-1.809l-4.22-4.22h0l-25.622-25.623h0zm3.922 12.963l17.182 17.182-20.95 20.95-17.186-17.182zM8.214 29.542l21.1-21.4a5.95 5.95 0 0 1 4.22-1.809c1.692-.047 3.329.608 4.522 1.809 2.221 2.111 2.42 5.584.454 7.934L15.466 38.915a5.8 5.8 0 0 1-7.252-.932 5.83 5.83 0 0 1 0-8.441zm14.771 27.431a5.83 5.83 0 0 1-8.44 0 5.83 5.83 0 0 1 0-8.44l5.168-5.168a16.76 16.76 0 0 0 1.462-1.165l21.4-21.4c.548-.549 1.046-1.147 1.485-1.786l4.544-4.544a5.97 5.97 0 0 1 10.034 2.652 5.97 5.97 0 0 1-1.593 5.789l-4.22 4.22-25.619 25.622zm21.252-12.66l8.591-8.44 21.447 21.354-.047.047L99.853 82.9l.1-.1 21 20.9-17.178 17.179-68.017-68.013zm-6.18 104.6l-.9.9a5.11 5.11 0 0 1-6.933 0L7.913 127.812a6.02 6.02 0 0 1 0-8.139l.3-.3a5.95 5.95 0 0 1 4.22-1.809 5.64 5.64 0 0 1 4.22 1.507l21.4 21.4a5.83 5.83 0 0 1 .004 8.443zm18.991-14.771a5.97 5.97 0 0 1-2.67 9.997 5.97 5.97 0 0 1-5.77-1.557l-6.333-6.329h0l-21.4-21.4h0l-6.33-6.33a5.97 5.97 0 0 1 2.64-10.057 5.97 5.97 0 0 1 5.8 1.616l4.22 4.22 25.623 25.623zM74.23 100.08l-21.4 21.4-17.185-17.18 21.7-21.4h0zm25.623 42.2a5.83 5.83 0 0 1 0-8.441l4.22-4.22h0L129.696 104h0l4.22-4.22a5.83 5.83 0 0 1 8.441 0 5.83 5.83 0 0 1 0 8.44l-6.33 6.33h0l-10.7 10.7-17.032 17.032c-1.1 1.156-2.625 1.81-4.221 1.81s-3.121-.654-4.221-1.81zm49.437-15.072l-22.91 22.91a4.37 4.37 0 0 1-6.33 0l-1.206-1.206a5.83 5.83 0 0 1 0-8.44l10.852-10.852 11.606-11.4a5.8 5.8 0 0 1 3.165-.957 6.28 6.28 0 0 1 4.522 2.11l.3.3c1.013.992 1.583 2.35 1.584 3.768s-.57 2.776-1.583 3.769z" fill="#a5a5a5"/></svg>