<svg xmlns="http://www.w3.org/2000/svg" width="201.48" height="133.795" opacity=".6" fill="#6d6d6d" xmlns:v="https://vecta.io/nano"><path d="M192.626 59.456h-21.894a44.03 44.03 0 0 0-7.7-44.07 2.951 2.951 0 1 0-4.486 3.836c12.874 15.096 11.994 37.548-2.021 51.59l-.043.044-36.338 37.4c-1.146 1.16-1.134 3.029.025 4.174s3.029 1.134 4.175-.025l34.266-35.24h34.012c4.89 0 8.854-3.964 8.854-8.854s-3.964-8.854-8.854-8.854zm0 11.805h-28.6a43.83 43.83 0 0 0 3.961-5.9h24.64a2.95 2.95 0 0 1 2.874 2.95 2.95 2.95 0 0 1-2.874 2.95zm-81.343 45.886c-6.172 6.12-9.139 8.86-10.555 10.086C93.92 121.381 65.843 92.58 47.1 73.05l20.635-20.634L107.02 91.7c1.66 1.661 3.913 2.594 6.261 2.594s4.601-.933 6.261-2.594L137 74.243c2.237-2.237 3.11-5.497 2.291-8.552s-3.206-5.442-6.261-6.261a8.85 8.85 0 0 0-8.552 2.292l-11.2 11.2-39.285-39.288c-1.66-1.661-3.913-2.594-6.261-2.594s-4.601.933-6.261 2.594l-10.05 10.05a2.951 2.951 0 1 0 4.174 4.174l10.05-10.05a2.95 2.95 0 0 1 4.174 0l41.375 41.375a2.95 2.95 0 0 0 4.174 0l13.287-13.287a2.951 2.951 0 1 1 4.174 4.174l-17.462 17.46a2.95 2.95 0 0 1-4.174 0L69.819 46.155a2.95 2.95 0 0 0-4.174 0L42.816 68.984a2.93 2.93 0 0 1-2.087.865H8.854a2.95 2.95 0 0 1-2.874-2.95 2.95 2.95 0 0 1 2.874-2.95h29.43a2.95 2.95 0 0 0 2.087-.865l6.338-6.338a2.951 2.951 0 1 0-4.174-4.174l-5.473 5.473h-.523c-5.592-14.126-2.29-30.223 8.412-41.006A37.71 37.71 0 0 1 71.8 5.9h0a37.7 37.7 0 0 1 26.847 11.134 2.95 2.95 0 0 0 4.177 0c6.098-6.156 14.139-10.013 22.757-10.914 8.458-.909 16.977 1.039 24.2 5.533a2.95 2.95 0 1 0 3.131-5 43.86 43.86 0 0 0-52.169 4.254C92.757 3.851 82.461-.029 71.805 0h0a43.58 43.58 0 0 0-31.032 12.865 44.18 44.18 0 0 0-10.521 45.178H8.854C3.964 58.043 0 62.007 0 66.897s3.964 8.854 8.854 8.854h31.875a9.2 9.2 0 0 0 .746-.036l27.331 28.22 19.828 19.962c10.089 9.9 10.68 9.9 12.107 9.9 1.51 0 2.135 0 14.7-12.457a2.951 2.951 0 1 0-4.156-4.192z"/></svg>