<svg xmlns="http://www.w3.org/2000/svg" width="115.392" height="156.396" xmlns:v="https://vecta.io/nano"><path d="M100.038 59.616c1.683-15.062 2.518-30.206 2.5-45.362a11.23 11.23 0 0 0-9.175-11.277c-18.409-4-54.941-2.81-54.941-2.81s-10.723 1.567-16.13 2.81a11.23 11.23 0 0 0-9.179 11.277c0 14.528.992 29.8 2.493 45.092-21.435 22.86-20.706 58.649 1.643 80.616s58.144 22.082 80.632.258 23.446-57.608 2.158-80.604zM57.696 41.004c-3.51.003-7.013.324-10.466.958-4.067.748-8.04 1.942-11.847 3.558-.631-8.318-1.061-16.059-1.29-23.4 2.8-.451 5.593-.84 8.648-1.189a133.91 133.91 0 0 1 14.955-.909 130.67 130.67 0 0 1 23.6 2.36c-.226 7.464-.648 15.124-1.265 23.146a57.17 57.17 0 0 0-22.335-4.524zM23.078 8.222a153.11 153.11 0 0 1 68.973 0c2.885.525 5.245 2.885 4.983 5.77 0 13.375-.787 27.012-1.836 40.912a54.57 54.57 0 0 0-8.853-6.233q-.551-.318-1.11-.622c.784-9.69 1.047-18.858 1.309-28.025-.047-1.241-.9-2.305-2.1-2.622-8.815-1.707-17.771-2.585-26.75-2.622-8.981 0-17.94.879-26.75 2.622-1.257.226-2.154 1.346-2.1 2.622.038 9.288.563 18.567 1.574 27.8-3.52 1.968-6.854 4.25-9.962 6.819-1.311-13.637-2.1-27.274-2.1-40.912-.26-2.362 2.1-4.988 4.722-5.509zm34.618 142.929c-28.841-.178-52.127-23.609-52.127-52.45s23.286-52.272 52.127-52.45a51.97 51.97 0 0 1 22.485 5.1c.236.281.527.51.856.672a50.16 50.16 0 0 1 14.162 10.22 3.09 3.09 0 0 0 .537.436c14.436 15.191 18.429 37.525 10.151 56.777s-27.234 31.718-48.191 31.692z" fill="#199e3b"/></svg>