<svg xmlns="http://www.w3.org/2000/svg" width="146.127" height="146.136" opacity=".6" fill="#6d6d6d" xmlns:v="https://vecta.io/nano"><path d="M143.691 92.557H2.436c-.646 0-1.266.256-1.723.713S0 94.347 0 94.993c.031 28.233 22.911 51.113 51.144 51.144h43.839c28.233-.031 51.113-22.911 51.144-51.144a2.43 2.43 0 0 0-.713-1.723c-.457-.457-1.077-.713-1.723-.713zm-48.708 48.709H51.144c-24.598-.029-44.886-19.275-46.21-43.838h136.258c-1.324 24.562-21.611 43.808-46.209 43.838zm29.234-107.145l-.019-.626c-.384-3.958-3.052-7.323-6.817-8.6l2.757-2.757c4.789-4.682 5.254-12.23 1.076-17.464-4.493-5.445-12.546-6.224-18-1.741-.309.256-.609.526-.908.826l-3 3.039c-1.31-3.767-4.702-6.42-8.674-6.783-2.581-.141-5.112.751-7.035 2.478s-3.08 4.149-3.216 6.73a9.47 9.47 0 0 0-.012.531v3.734c-1.476-.858-3.154-1.31-4.861-1.31-.175 0-.356 0-.626.019-5.214.502-9.178 4.908-9.126 10.146v3.312a9.71 9.71 0 0 0-4.861-1.3c-.175 0-.353 0-.623.019-5.216.499-9.182 4.907-9.131 10.146v36.118c0 .646.256 1.266.713 1.723s1.077.713 1.723.713h41.4c3.48.002 6.696-1.854 8.436-4.868a9.73 9.73 0 0 0-.005-9.74h3.29a10.08 10.08 0 0 0 10.195-9.223 9.68 9.68 0 0 0-1.332-5.45c4.923-.555 8.646-4.717 8.65-9.671zm-6.3 3.439a4.85 4.85 0 0 1-3.444 1.42h-7.314c-1.326.027-2.387 1.109-2.387 2.435s1.061 2.409 2.387 2.436l.268.007a4.86 4.86 0 0 1 4.613 5.029 5.19 5.19 0 0 1-5.295 4.705H94.982c-1.326.027-2.387 1.109-2.387 2.436s1.061 2.409 2.387 2.436a4.87 4.87 0 1 1 0 9.741H56.015V34.479a5.2 5.2 0 0 1 4.613-5.246l.265-.007c2.684.006 4.858 2.18 4.864 4.864v.017c-.001.646.256 1.265.712 1.722a2.43 2.43 0 0 0 1.721.714h0c1.344 0 2.434-1.089 2.436-2.433V22.299a5.2 5.2 0 0 1 4.613-5.246l.263-.007a4.88 4.88 0 0 1 4.866 4.868v.015c-.001.646.256 1.265.712 1.722a2.43 2.43 0 0 0 1.721.714h0c1.344 0 2.434-1.089 2.436-2.433V9.754l.007-.27a4.83 4.83 0 0 1 5.027-4.613c2.712.266 4.762 2.575 4.705 5.3v2.021a2.43 2.43 0 0 0 1.512 2.252c.915.374 1.964.159 2.657-.545l6.607-6.7c.18-.178.365-.346.558-.5a7.92 7.92 0 0 1 11.113 1.042 8.18 8.18 0 0 1-.714 10.943l-6.405 6.405c-.697.696-.905 1.744-.528 2.654s1.265 1.503 2.25 1.503h2.15a5.19 5.19 0 0 1 5.158 4.613l.007.268a4.84 4.84 0 0 1-1.425 3.432z"/><path d="M37.249 83.522l68.192-68.192 3.444 3.444-68.192 68.192z"/><path d="M90.107 19.508h4.871v12.177h-4.871zM75.494 31.685h4.871v14.613h-4.871z"/><path d="M60.881 43.838h4.871v17.048h-4.871zM92.542 29.25h12.177v4.871H92.542z"/><path d="M77.929 43.838h14.613v4.871H77.929zM63.317 58.451h17.048v4.871H63.317zm-17.86-47.184c-3.455-5.164-10.416-6.553-15.574-3.122-.161.1-.319.217-.5.351l-.877.667-.843-.607a11.2 11.2 0 1 0-13.348 17.833l2.051 1.6v1.249c0 4.35 2.321 8.37 6.088 10.545s8.409 2.175 12.176 0 6.088-6.195 6.088-10.545v-1.249l2.156-1.681c4.667-3.564 5.794-10.125 2.583-15.041zm-5.554 11.181l-3.117 2.436a2.44 2.44 0 0 0-.935 1.919v2.435a7.31 7.31 0 0 1-7.306 7.306 7.31 7.31 0 0 1-7.306-7.306v-2.435a2.43 2.43 0 0 0-.935-1.919l-3.12-2.436a2.4 2.4 0 0 0-.295-.2 6.33 6.33 0 1 1 7.53-10.059 2.57 2.57 0 0 0 .265.221l2.436 1.754c.869.628 2.047.613 2.9-.037l2.567-1.931a6.3 6.3 0 0 1 7.316 10.252zM53.575 2.435h4.871v4.871h-4.871zM68.188 80.37h4.871v4.871h-4.871zm63.326-65.745v4.871a4.871 4.871 0 1 1 0 9.742v4.871c5.38 0 9.742-4.362 9.742-9.742s-4.362-9.742-9.742-9.742zM4.866 36.556h4.871v4.871H4.866zM0 26.814h4.871v4.871H0zm94.983 51.13c-5.378.006-9.736 4.364-9.742 9.742h4.871a4.871 4.871 0 1 1 9.742 0h4.871c-.006-5.378-4.364-9.736-9.742-9.742zM29.225 56.029h-.307c-1.112-4.302-4.992-7.307-9.435-7.307s-8.323 3.005-9.435 7.307h-.306A9.74 9.74 0 0 0 1.223 70.67a9.74 9.74 0 0 0 8.519 4.842h19.483a9.74 9.74 0 0 0 8.519-14.641 9.74 9.74 0 0 0-8.519-4.842zm0 14.615H9.741a4.87 4.87 0 1 1 0-9.742h2.436a2.44 2.44 0 0 0 1.723-.713c.457-.456.713-1.076.713-1.723a4.871 4.871 0 1 1 9.742 0 2.44 2.44 0 0 0 .713 1.723c.456.457 1.076.713 1.723.713h2.436a4.87 4.87 0 1 1 0 9.742z"/><path d="M24.354 70.638h-9.741a2.44 2.44 0 0 0-1.723.713c-.457.456-.713 1.076-.713 1.723v9.742c0 .646.256 1.266.713 1.723s1.077.713 1.723.713h9.742c.646 0 1.266-.256 1.723-.713s.713-1.077.713-1.723v-9.742c0-.646-.257-1.266-.714-1.723s-1.077-.713-1.723-.713zm-2.436 9.742h-4.87v-4.871h4.871v4.871zm107.16-17.049a7.31 7.31 0 0 0-7.306 7.306 7.31 7.31 0 0 0 7.306 7.306 7.31 7.31 0 0 0 7.306-7.306c-.005-4.033-3.273-7.301-7.306-7.306zm0 9.744c-.986-.001-1.873-.595-2.25-1.506s-.166-1.959.532-2.655 1.746-.903 2.656-.524 1.502 1.268 1.5 2.254a2.44 2.44 0 0 1-2.438 2.431zm.001-19.485a17.05 17.05 0 1 0 17.048 17.044 17.07 17.07 0 0 0-17.048-17.044zm0 29.228a12.18 12.18 0 0 1-12.177-12.177 12.18 12.18 0 0 1 12.177-12.177 12.18 12.18 0 0 1 12.177 12.177c-.009 6.722-5.455 12.168-12.177 12.177z"/></svg>