<svg xmlns="http://www.w3.org/2000/svg" width="126.813" height="20.482" fill="#ffd500" xmlns:v="https://vecta.io/nano"><path d="M11.559.523l2.588 5.243a.94.94 0 0 0 .7.513l5.786.84c.354.05.649.298.759.638s.017.714-.24.962L16.965 12.8c-.221.215-.322.525-.27.829l.989 5.763c.06.351-.085.705-.373.915s-.67.237-.985.072l-5.175-2.722a.94.94 0 0 0-.871 0l-5.175 2.722c-.315.165-.697.137-.985-.072a.94.94 0 0 1-.373-.915l.988-5.763c.052-.304-.048-.614-.269-.829L.279 8.719c-.257-.248-.35-.622-.24-.962s.405-.588.759-.638l5.786-.84a.94.94 0 0 0 .7-.513L9.872.523c.155-.325.483-.532.844-.532s.688.207.844.532zm26.343 0l2.588 5.243a.94.94 0 0 0 .7.513l5.786.84c.354.05.649.298.759.638s.017.714-.24.962L43.308 12.8c-.221.215-.322.525-.27.829l.989 5.763c.06.351-.085.705-.373.915s-.67.237-.985.072l-5.175-2.722a.94.94 0 0 0-.871 0l-5.175 2.722c-.315.165-.697.137-.985-.072a.94.94 0 0 1-.373-.915l.988-5.763c.052-.304-.048-.614-.269-.829l-4.187-4.081c-.257-.248-.35-.622-.24-.962s.405-.588.759-.638l5.786-.84a.94.94 0 0 0 .7-.513L36.215.523c.155-.325.483-.532.844-.532s.688.207.844.532zm26.343 0l2.588 5.243a.94.94 0 0 0 .7.513l5.786.84c.354.05.649.298.759.638s.017.714-.24.962L69.651 12.8c-.221.215-.322.525-.27.829l.989 5.763c.06.351-.085.705-.373.915s-.67.237-.985.072l-5.175-2.722a.94.94 0 0 0-.871 0l-5.175 2.722c-.315.165-.697.137-.985-.072a.94.94 0 0 1-.373-.915l.988-5.763c.052-.304-.048-.614-.269-.829l-4.187-4.081c-.257-.248-.35-.622-.24-.962s.405-.588.759-.638l5.786-.84a.94.94 0 0 0 .7-.513L62.558.523c.155-.325.483-.532.844-.532s.688.207.844.532zm26.343 0l2.588 5.243a.94.94 0 0 0 .7.513l5.786.84c.354.05.649.298.759.638s.017.714-.24.962L95.994 12.8c-.221.215-.322.525-.27.829l.989 5.763c.06.351-.085.705-.373.915s-.67.237-.985.072l-5.175-2.722a.94.94 0 0 0-.871 0l-5.175 2.722c-.315.165-.697.137-.985-.072a.94.94 0 0 1-.373-.915l.988-5.763c.053-.304-.048-.614-.269-.829l-4.187-4.081c-.257-.248-.35-.622-.24-.962s.405-.588.759-.638l5.786-.84a.94.94 0 0 0 .7-.513L88.901.523c.155-.325.483-.532.844-.532s.688.207.844.532zm26.343 0l2.588 5.243a.94.94 0 0 0 .7.513l5.786.84c.354.05.649.298.759.638s.017.714-.24.962l-4.187 4.081c-.221.215-.322.525-.27.829l.989 5.763c.06.351-.085.705-.373.915s-.67.237-.985.072l-5.175-2.722a.94.94 0 0 0-.871 0l-5.175 2.722c-.315.165-.697.137-.985-.072a.94.94 0 0 1-.373-.915l.988-5.763c.053-.304-.048-.614-.269-.829l-4.187-4.081c-.257-.248-.35-.622-.24-.962s.405-.588.759-.638l5.786-.84a.94.94 0 0 0 .7-.513l2.588-5.243c.155-.325.483-.532.844-.532s.688.207.844.532z"/></svg>